<svg xmlns="http://www.w3.org/2000/svg" xmlns:xlink="http://www.w3.org/1999/xlink" viewBox="0,0,256,256" width="50px" height="50px" fill-rule="nonzero"><g fill="#f18967" fill-rule="nonzero" stroke="none" stroke-width="1" stroke-linecap="butt" stroke-linejoin="miter" stroke-miterlimit="10" stroke-dasharray="" stroke-dashoffset="0" font-family="none" font-weight="none" font-size="none" text-anchor="none" style="mix-blend-mode: normal"><g transform="scale(5.12,5.12)"><path d="M0,4v42h50v-42zM2,6h46v38h-46zM4,8v22.78125c-0.02734,0.13281 -0.02734,0.27344 0,0.40625v10.8125h42v-4.84375c0.02734,-0.13281 0.02734,-0.27344 0,-0.40625v-28.75zM6,10h38v24.5625l-9.28125,-9.28125c-0.22266,-0.21875 -0.53516,-0.32422 -0.84375,-0.28125c-0.22266,0.02344 -0.43359,0.125 -0.59375,0.28125l-4.25,4.25l-10.28125,-11.21875c-0.23047,-0.25 -0.57031,-0.37109 -0.90625,-0.3125c-0.19922,0.02734 -0.38281,0.11719 -0.53125,0.25l-11.3125,10.4375zM35,15c-1.65625,0 -3,1.34375 -3,3c0,1.65625 1.34375,3 3,3c1.65625,0 3,-1.34375 3,-3c0,-1.65625 -1.34375,-3 -3,-3zM17.9375,20.4375l9.65625,10.53125l-2.3125,2.3125c-0.39844,0.39844 -0.39844,1.03906 0,1.4375c0.39844,0.39844 1.03906,0.39844 1.4375,0l2.84375,-2.875c0.14063,-0.08594 0.25781,-0.20312 0.34375,-0.34375l4.09375,-4.0625l10,10v2.5625h-38v-8.53125z"></path></g></g></svg>