<svg xmlns="http://www.w3.org/2000/svg" xmlns:xlink="http://www.w3.org/1999/xlink" id="Layer_1" x="0px" y="0px" viewBox="0 0 280.8 236.9" style="enable-background:new 0 0 280.8 236.9;" xml:space="preserve"> <style type="text/css"> .st0{fill:#F15D22;} </style> <path id="Icon_awesome-quote-right" class="st0" d="M254.5,0h-70.2C169.8,0,158,11.4,158,25.4v67.7c0,14,11.8,25.4,26.3,25.4h43.9 v33.8c0,18.7-15.7,33.8-35.1,33.8h-4.4c-7.1-0.1-13,5.5-13.2,12.6c0,0,0,0,0,0.1v25.4c0.1,7.1,6,12.8,13.1,12.7c0,0,0,0,0.1,0h4.4 c48.5,0,87.8-37.9,87.8-84.6V25.4C280.8,11.4,269,0,254.5,0z M96.5,0H26.3C11.8,0,0,11.4,0,25.4v67.7c0,14,11.8,25.4,26.3,25.4h43.9 v33.8c0,18.7-15.7,33.8-35.1,33.8h-4.4c-7.1-0.1-13,5.5-13.2,12.6c0,0,0,0,0,0.1v25.4c0.1,7.1,6,12.8,13.1,12.7c0,0,0,0,0.1,0h4.4 c48.5,0,87.8-37.9,87.8-84.6V25.4C122.9,11.4,111.1,0,96.5,0z"></path> </svg>