<?xml version="1.0" encoding="utf-8"?>
<!-- Generator: Adobe Illustrator 27.5.0, SVG Export Plug-In . SVG Version: 6.00 Build 0)  -->
<svg version="1.1" id="Layer_1" xmlns="http://www.w3.org/2000/svg" xmlns:xlink="http://www.w3.org/1999/xlink" x="0px" y="0px"
	 viewBox="0 0 60 60" style="enable-background:new 0 0 60 60;" xml:space="preserve">
<style type="text/css">
	.st0{fill-rule:evenodd;clip-rule:evenodd;fill:#F96332;}
	.st1{fill-rule:evenodd;clip-rule:evenodd;fill:#FFFFFF;}
</style>
<path class="st0" d="M29,31c1.6-1.6,1.7-3.8,1.7-5.1c0-5.1-3-12.9-8.8-12.9c-1.8,0-3.8,0.9-4.9,2.3c-1.2,1.5-1.5,3.4-1.5,5.2
	c0,4.7,2.7,12.5,8.7,12.5C25.9,33,27.8,32.1,29,31z M0,30c0,7.1,2.5,14,7.1,19.4c0.8-1.4,2.1-2.8,4.1-3.9c4.3-2.7,10.2-3,13.4-3.2
	c-1-1.3-2.1-2.6-2.1-4.8c0-1.2,0.4-1.9,0.7-2.7c-0.8,0.1-1.5,0.2-2.2,0.2c-7.4,0-11.6-5.5-11.6-11c0-3.2,1.5-6.8,4.5-9.4
	c4-3.3,8.7-3.8,12.5-3.8h14.4l-4.5,2.5h-4.3c1.6,1.3,5,4.1,5,9.4c0,5.2-2.9,7.6-5.9,9.9c-0.9,0.9-2,1.9-2,3.4c0,1.5,1,2.4,1.8,3
	l2.5,2c3.1,2.6,5.9,5,5.9,9.8c0,3.2-1.5,6.4-4.4,8.8c-1.6,0.3-3.2,0.4-4.8,0.4c2.9-1.3,4.5-3.6,4.5-6.5c0-3.6-2.3-5.5-7.6-9.2
	c-0.6-0.1-0.9-0.1-1.6-0.1c-0.6,0-4.4,0.1-7.3,1.1c-1.5,0.6-6,2.2-6,7.2c0,0.5,0.1,1.1,0.2,1.6C4.8,48.6,0,39.9,0,30z M30,60
	C13.4,60,0,46.6,0,30C0,13.4,13.4,0,30,0c12.5,0,23.2,7.7,27.7,18.5h-6v-7.8h-3.3v7.8h-7.8v3.3h7.8v7.9h3.3v-7.9h7.1
	c0.8,2.7,1.1,5.4,1.1,8.2C60,46.6,46.6,60,30,60z"/>
<path class="st1" d="M33.3,41l-2.5-2C30,38.4,29,37.6,29,36c0-1.5,1-2.5,2-3.4c2.9-2.3,5.9-4.8,5.9-9.9c0-5.3-3.3-8.1-5-9.5h4.3
	l4.5-2.5H26.3c-3.8,0-8.5,0.6-12.5,3.8c-3,2.6-4.5,6.2-4.5,9.4c0,5.5,4.2,11,11.6,11c0.7,0,1.5-0.1,2.2-0.1
	c-0.3,0.8-0.7,1.5-0.7,2.7c0,2.2,1.1,3.5,2.1,4.8c-3.2,0.2-9,0.5-13.4,3.2c-1.9,1.1-3.2,2.5-4.1,3.9c0.2,0.3,0.5,0.6,0.7,0.8
	c0.3,0.3,0.6,0.6,0.9,0.9c0,0.1,0.1,0.1,0.2,0.2c0.3,0.3,0.6,0.6,0.9,0.9c0.3,0.3,0.6,0.6,1,0.8c0.4,0.4,0.9,0.7,1.3,1.1
	c-0.1-0.5-0.2-1-0.2-1.6c0-5,4.5-6.7,6-7.2c2.9-1,6.7-1.1,7.3-1.1c0.7,0,1.1,0,1.6,0.1c5.3,3.8,7.6,5.7,7.6,9.2
	c0,2.8-1.5,5.2-4.5,6.5c0.6,0,1.2,0,1.8-0.1c0.3,0,0.6,0,0.9-0.1c0.2,0,0.4,0,0.6,0c0.4,0,0.8-0.1,1.2-0.2c0.1,0,0.2,0,0.3-0.1
	c2.9-2.5,4.4-5.6,4.4-8.8C39.2,45.9,36.4,43.6,33.3,41z M24.2,33c-6,0-8.8-7.8-8.8-12.5c0-1.8,0.4-3.7,1.5-5.2
	c1.1-1.4,3.1-2.3,4.9-2.3c5.8,0,8.8,7.8,8.8,12.9c0,1.3-0.1,3.5-1.7,5.1C27.8,32.1,25.9,33,24.2,33z M57.7,18.5
	c0.5,1.1,0.8,2.2,1.1,3.3h-7.1v7.9h-3.4v-7.9h-7.8v-3.3h7.8v-7.8h3.4v7.8H57.7z"/>
</svg>
